<svg xmlns="http://www.w3.org/2000/svg" viewBox="0 0 100 112" aria-label="WOOHWAHAE">
  <path fill-rule="evenodd" d="
    M50 3
    C63 2, 78 5, 87 13
    C95 20, 97 34, 97 50
    C97 67, 95 82, 87 91
    C78 100, 63 104, 50 104
    C37 104, 22 100, 13 91
    C5 82, 3 67, 3 50
    C3 34, 5 20, 13 13
    C22 5, 37 2, 50 3
    Z

    M48 42
    C46 35, 36 22, 25 24
    C16 26, 14 37, 18 46
    C22 54, 36 55, 46 49
    C48 47, 49 44, 48 42
    Z

    M52 42
    C54 35, 64 22, 75 24
    C84 26, 86 37, 82 46
    C78 54, 64 55, 54 49
    C52 47, 51 44, 52 42
    Z

    M50 25
    C47 25, 45 29, 45 34
    C45 39, 47 42, 50 42
    C53 42, 55 39, 55 34
    C55 29, 53 25, 50 25
    Z

    M50 48
    L47 52
    L50 57
    L53 52
    Z

    M48 58
    C45 55, 32 53, 24 59
    C18 65, 20 76, 29 78
    C38 80, 48 72, 48 64
    C48 61, 48 59, 48 58
    Z

    M52 58
    C55 55, 68 53, 76 59
    C82 65, 80 76, 71 78
    C62 80, 52 72, 52 64
    C52 61, 52 59, 52 58
    Z

    M44 78
    C42 84, 39 91, 36 100
    C35 104, 34 108, 34 110
    L38 110
    C38 108, 39 104, 40 100
    C43 91, 46 84, 47 79
    Z

    M56 78
    C58 84, 61 91, 64 100
    C65 104, 66 108, 66 110
    L62 110
    C62 108, 61 104, 60 100
    C57 91, 54 84, 53 79
    Z
  " fill="#1A1A1A"/>
</svg>
