<svg xmlns="http://www.w3.org/2000/svg" viewBox="0 0 100 110" fill="none">

  <!-- ── 씰: 불규칙 잉크 스탬프 형태 ── -->
  <path d="
    M 50 4
    C 62 3, 76 6, 85 14
    C 94 22, 96 36, 96 50
    C 96 66, 93 80, 84 90
    C 75 100, 62 107, 50 107
    C 38 107, 25 100, 16 90
    C 7 80, 4 66, 4 50
    C 4 36, 6 22, 15 14
    C 24 6, 38 5, 50 4 Z
  " fill="#1A1A1A"/>

  <!-- ── 위 왼쪽 날개 (큰 볼록 형태, 안쪽 뾰족) ── -->
  <path d="
    M 48 42
    C 46 35, 36 22, 25 24
    C 16 26, 14 37, 18 45
    C 22 53, 36 55, 46 49
    C 48 47, 49 45, 48 42 Z
  " fill="#FAFAF7"/>

  <!-- ── 위 오른쪽 날개 ── -->
  <path d="
    M 52 42
    C 54 35, 64 22, 75 24
    C 84 26, 86 37, 82 45
    C 78 53, 64 55, 54 49
    C 52 47, 51 45, 52 42 Z
  " fill="#FAFAF7"/>

  <!-- ── 중앙 상단 작은 타원 (머리/몸통 상부) ── -->
  <ellipse cx="50" cy="33" rx="5" ry="8" fill="#FAFAF7"/>

  <!-- ── 중앙 허리: 위-아래 날개 연결 마름모 ── -->
  <path d="
    M 50 48 L 47 52 L 50 57 L 53 52 Z
  " fill="#FAFAF7"/>

  <!-- ── 아래 왼쪽 날개 (위보다 작고 더 타원형) ── -->
  <path d="
    M 48 58
    C 45 55, 32 53, 24 59
    C 18 65, 20 75, 29 77
    C 38 79, 48 72, 48 64
    C 48 62, 48 60, 48 58 Z
  " fill="#FAFAF7"/>

  <!-- ── 아래 오른쪽 날개 ── -->
  <path d="
    M 52 58
    C 55 55, 68 53, 76 59
    C 82 65, 80 75, 71 77
    C 62 79, 52 72, 52 64
    C 52 62, 52 60, 52 58 Z
  " fill="#FAFAF7"/>

  <!-- ── 하단 왼쪽 줄기 (가위 다리, 안에서 바깥으로 벌어짐) ── -->
  <path d="
    M 44 77
    C 41 83, 37 90, 35 98
    L 39 99
    C 41 91, 45 84, 47 78 Z
  " fill="#FAFAF7"/>

  <!-- ── 하단 오른쪽 줄기 ── -->
  <path d="
    M 56 77
    C 59 83, 63 90, 65 98
    L 61 99
    C 59 91, 55 84, 53 78 Z
  " fill="#FAFAF7"/>

</svg>
